# xmcd
#
# Track frame offsets:
#	150
#	10323
#	22560
#	34709
#	53399
#	66435
#	77912
#	92291
#	103793
#	115596
#	135662
#	149059
#	161189
#	170719
#	182452
#	194688
#	210433
#
# Disc length: 2997 seconds
#
# Revision: 4
# Processed by: cddbd v1.5.2PL0 Copyright (c) Steve Scherf et al.
# Submitted via: EZCDAudioConverter 2.1.7.1
#
DISCID=e00bb311
DTITLE=V/A - Miami Sound
DYEAR=2003
DGENRE=
TTITLE0=All The People - Cramp Your Style
TTITLE1=Helene Smith - You Got To Be A Man
TTITLE2=George McCrae - I Get Lifted
TTITLE3=James Knight and The Butlers - Funky Cat
TTITLE4=Gwen McCrae - 90% Of Me Is You
TTITLE5=Little Beaver - Funkadelic Sound
TTITLE6=James Knight and The Butlers - Save Me
TTITLE7=Joey Gilmore - Do It To Me One More Time
TTITLE8=Helene Smith - A Woman Will Do Wrong
TTITLE9=James Knight and The Butlers - Fantasy World
TTITLE10=Timmy Thomas - Funky Me
TTITLE11=New Clarence Reid - Cadillac Annie
TTITLE12=Frank Williams and The Rocketeers - The Spanish Flyer
TTITLE13=Della Humphrey - Don't Make The Good Girls Go Bad
TTITLE14=Frank Williams and The Rocketeers - You Got To Be A Man
TTITLE15=Joey Gilmore - Someody Done Took My Baby And Gone
TTITLE16=Little Beaver - I Love The Way You Love
EXTD=
EXTT0=
EXTT1=
EXTT2=
EXTT3=
EXTT4=
EXTT5=
EXTT6=
EXTT7=
EXTT8=
EXTT9=
EXTT10=
EXTT11=
EXTT12=
EXTT13=
EXTT14=
EXTT15=
EXTT16=
PLAYORDER=
